<?xml version="1.0"?>
<svg xmlns="http://www.w3.org/2000/svg" id="OutLine" viewBox="0 0 512 512" width="512" height="512"><path d="M74.782,232a8,8,0,0,1-7.889-9.383A192.259,192.259,0,0,1,222.618,66.893a8,8,0,1,1,2.764,15.76A176.214,176.214,0,0,0,82.652,225.382,8,8,0,0,1,74.782,232Z"/><path d="M287.99,445.229a8,8,0,0,1-1.372-15.882,176.214,176.214,0,0,0,142.73-142.729,8,8,0,1,1,15.759,2.764A192.259,192.259,0,0,1,289.382,445.107,8.051,8.051,0,0,1,287.99,445.229Z"/><circle cx="72" cy="256" r="8"/><circle cx="256" cy="72" r="8"/><circle cx="440" cy="256" r="8"/><circle cx="256" cy="440" r="8"/><path d="M256,496A240,240,0,0,1,86.3,86.294a240,240,0,1,1,339.41,339.412A238.426,238.426,0,0,1,256,496Zm0-464A224,224,0,0,0,97.608,414.392,224,224,0,0,0,414.392,97.608,222.535,222.535,0,0,0,256,32Z"/><path d="M251.578,303.155a8,8,0,0,0,3.577-10.733l-27.135-54.27A40,40,0,0,0,216,160H168a8,8,0,0,0-8,8V296a8,8,0,0,0,16,0V240h35.056l29.789,59.578a7.993,7.993,0,0,0,10.733,3.577ZM176,176h40a24,24,0,0,1,0,48H176Z"/><path d="M288,344V304h24a40,40,0,0,0,0-80H280a8,8,0,0,0-8,8V344a8,8,0,0,0,16,0Zm48-80a24.028,24.028,0,0,1-24,24H288V240h24A24.028,24.028,0,0,1,336,264Z"/></svg>
